# AST/ASF file generated using VICON BodyLanguage
# -----------------------------------------------
:version 1.10
:name VICON
:units
  mass 1.0
  length 0.45
  angle deg
:documentation
   .ast/.asf automatically generated from VICON data using
   VICON BodyBuilder and BodyLanguage model FoxedUp or BRILLIANT.MOD
:root
   order TX TY TZ RX RY RZ
   axis XYZ
   position 0 0 0  
   orientation 0 0 0 
:bonedata
  begin
     id 1 
     name lhipjoint
     direction 0.566809 -0.746272 0.349008 
     length 2.40479 
     axis 0 0 0  XYZ
  end
  begin
     id 2 
     name lfemur
     direction 0.34202 -0.939693 0  
     length 7.1578  
     axis 0 0 20  XYZ
    dof rx ry rz
    limits (-160.0 20.0)
           (-70.0 70.0)
           (-60.0 70.0)
  end
  begin
     id 3 
     name ltibia
     direction 0.34202 -0.939693 0   
     length 7.49137   
     axis 0 0 20   XYZ
    dof rx
    limits (-10.0 170.0)
  end
  begin
     id 4 
     name lfoot
     direction 0.0665746 -0.182912 0.980873   
     length 2.36784   
     axis -90 7.62852e-016 20   XYZ
    dof rx rz
    limits (-45.0 90.0)
           (-70.0 20.0)
  end
  begin
     id 5 
     name ltoes
     direction 1.53601e-011 -4.22058e-011 1   
     length 1.18966   
     axis -90 7.62852e-016 20   XYZ
    dof rx
    limits (-90.0 20.0)
  end
  begin
     id 6 
     name rhipjoint
     direction -0.550236 -0.756381 0.353735   
     length 2.37265  
     axis 0 0 0  XYZ 
  end
  begin
     id 7 
     name rfemur
     direction -0.34202 -0.939693 0   
     length 7.43386   
     axis 0 0 -20   XYZ
    dof rx ry rz
    limits (-160.0 20.0)
           (-70.0 70.0)
           (-70.0 60.0)
  end
  begin
     id 8 
     name rtibia
     direction -0.34202 -0.939693 0   
     length 7.50908   
     axis 0 0 -20   XYZ
    dof rx
    limits (-10.0 170.0)
 end
 begin
     id 9 
     name rfoot
     direction -0.0683029 -0.187661 0.979856   
     length 2.41173  
     axis -90 -7.62852e-016 -20   XYZ
    dof rx rz
    limits (-45.0 90.0)
           (-20.0 70.0)
  end
  begin
     id 10 
     name rtoes
     direction -1.53528e-011 -4.21968e-011 1   
     length 1.21082   
     axis -90 -7.62852e-016 -20   XYZ
    dof rx
    limits (-90.0 20.0)
  end
  begin
     id 11 
     name lowerback
     direction 0.013823 0.995423 -0.0945635   
     length 2.04495   
     axis 0 0 0   XYZ
    dof rx ry rz
    limits (-20.0 45.0)
           (-30.0 30.0)
           (-30.0 30.0)
  end
  begin
     id 12 
     name upperback
     direction 0.0276657 0.9994 -0.020853   
     length 2.05008   
     axis 0 0 0   XYZ
    dof rx ry rz
    limits (-20.0 45.0)
           (-30.0 30.0)
           (-30.0 30.0)
  end
  begin
     id 13 
     name thorax
     direction 0.019782 0.999531 0.0233827   
     length 2.06488   
     axis 0 0 0   XYZ
    dof rx ry rz
    limits (-20.0 45.0)
           (-30.0 30.0)
           (-30.0 30.0)
  end
  begin
     id 14 
     name lowerneck
     direction -0.0308541 0.994709 0.0979874   
     length 1.75553   
     axis 0 0 0   XYZ
    dof rx ry rz
    limits (-20.0 45.0)
           (-30.0 30.0)
           (-30.0 30.0)
  end
  begin
     id 15 
     name upperneck
     direction 0.0588398 0.995804 -0.0700903   
     length 1.76878   
     axis 0 0 0   XYZ
    dof rx ry rz
    limits (-20.0 45.0)
           (-30.0 30.0)
           (-30.0 30.0)
  end
  begin
     id 16
     name head
     direction 0.0209966 0.999159 -0.0352225  
     length 1.77193  
     axis 0 0 0   XYZ
    dof rx ry rz
    limits (-20.0 45.0)
           (-30.0 30.0)
           (-30.0 30.0)
  end
  begin
     id 17 
     name lclavicle
     direction 0.938182 0.335073 -0.0868338  
     length 3.58396  
     axis 0 0 0   XYZ
    dof ry rz
    limits (-20.0 10.0)
           (0.0 20.0)
  end
  begin
     id 18 
     name lhumerus
     direction 1 -4.48971e-011 -1.26313e-017   
     length 4.983   
     axis 180 -30 -90   XYZ
    dof rx ry rz
    limits (-60.0 90.0)
           (-90.0 90.0)
           (-90.0 90.0)
  end
  begin
     id 19
     name lradius
     direction 1 -4.48948e-011 -5.89033e-027   
     length 3.48356   
     axis 180 -30 -90   XYZ
    dof rx
    limits (-10.0 170.0)
  end
  begin
     id 20
     name lwrist
     direction 1 -4.48977e-011 -1.48983e-026   
     length 1.74178   
     axis 9.0955e-015 90 90   XYZ
    dof ry
    limits (-180.0 0.0)
 end
  begin
     id 21 
     name lhand
     direction 1 -4.49046e-011 -2.98066e-026   
     length 0.715259   
     axis 1.90115e-014 90 90   XYZ
    dof rx rz
    limits (-90.0 90.0)
           (-45.0 45.0)
  end
  begin
     id 22 
     name lfingers
     direction 1 -4.48907e-011 -5.95731e-026   
     length 0.576661   
     axis 3.80223e-014 90 90   XYZ
    dof rx
    limits (0.0 90.0)
  end
  begin
     id 23
     name lthumb
     direction 0.707107 -6.34963e-011 0.707107   
     length 0.827973   
     axis -90 45 -3.84942e-014   XYZ
    dof rx rz
    limits (-45.0 45.0)
           (-45.0 45.0)
  end
  begin
     id 24 
     name rclavicle
     direction -0.909637 0.398485 -0.11735   
     length 3.44819  
     axis 0 0 0   XYZ 
    dof ry rz
    limits (-10.0 20.0)
           (-20.0 0.0)
  end
  begin
     id 25 
     name rhumerus
     direction -1 -4.48978e-011 -1.09333e-027  
     length 5.2419   
     axis 180 30 90   XYZ
    dof rx ry rz
    limits (-90.0 60.0)
           (-90.0 90.0)
           (-90.0 90.0)
  end
  begin
     id 26 
     name rradius
     direction -1 -4.48953e-011 -7.61841e-027   
     length 3.44417   
     axis 180 30 90   XYZ
    dof rx
    limits (-10.0 170.0)
  end
  begin
     id 27 
     name rwrist
     direction -1 -4.48977e-011 -1.48983e-026   
     length 1.72209   
     axis 9.0955e-015 -90 -90   XYZ
    dof ry
    limits (-180.0 0.0)
  end
  begin
     id 28
     name rhand
     direction -1 -4.49027e-011 -2.98038e-026   
     length 0.622529   
     axis 1.90115e-014 -90 -90   XYZ
    dof rx rz
    limits (-90.0 90.0)
           (-45.0 45.0)
  end
  begin
     id 29
     name rfingers
     direction -1 -4.48838e-011 -5.95531e-026   
     length 0.501899   
     axis 3.80223e-014 -90 -90   XYZ
    dof rx
    limits (0.0 90.0)
  end
  begin
     id 30
     name rthumb
     direction -0.707107 -6.34937e-011 0.707107   
     length 0.720629   
     axis -90 -45 3.84942e-014   XYZ
    dof rx rz
    limits (-45.0 45.0)
           (-45.0 45.0)
  end
:hierarchy
  begin
    root lhipjoint rhipjoint lowerback
    lhipjoint lfemur
    lfemur ltibia
    ltibia lfoot
    lfoot ltoes
    rhipjoint rfemur
    rfemur rtibia
    rtibia rfoot
    rfoot rtoes
    lowerback upperback
    upperback thorax
    thorax lowerneck lclavicle rclavicle
    lowerneck upperneck
    upperneck head
    lclavicle lhumerus
    lhumerus lradius
    lradius lwrist
    lwrist lhand lthumb
    lhand lfingers
    rclavicle rhumerus
    rhumerus rradius
    rradius rwrist
    rwrist rhand rthumb
    rhand rfingers
  end

#!OML:ASF F:\VICON\USERDATA\Patient Classification 1\PLAYGROUND\JustinFriday\JustinFriday.ASF
:FULLY-SPECIFIED
:DEGREES
1284
root 13.2966 26.1314 39.6576 149.214 1.70351 -176.837
lowerback 28.0534 -4.45662 2.69561
upperback 8.13266 -2.90511 0.674461
thorax -6.49504 -0.507964 0.0476801
lowerneck 21.0774 2.78548 -13.8861
upperneck -21.4317 1.94407 9.18848
head -10.5924 1.02864 5.34609
rclavicle -1.32999e-014 -8.34896e-015
rhumerus 59.998 5.84999 -72.8154
rradius 114.572
rwrist 6.67441
rhand -56.7338 -12.5251
rfingers 7.12502
rthumb -29.0373 -40.2824
lclavicle -1.32999e-014 -8.34896e-015
lhumerus 53.398 19.0354 59.5533
lradius 106.993
lwrist -18.8044
lhand -63.0954 -70.1597
lfingers 7.12502
lthumb -35.0934 -43.6255
rfemur -22.6341 -8.15314 11.8715
rtibia 89.8753
rfoot 45.5697 -3.81125
rtoes 65.5962
lfemur -25.6081 9.23471 2.28133
ltibia 96.7344
lfoot 20.5405 -7.87712
ltoes 7.7773
1285
root 13.2955 26.1385 39.6564 149.226 1.86406 -176.839
lowerback 28.0119 -4.45518 2.67854
upperback 8.14057 -2.91442 0.67603
thorax -6.46534 -0.514349 0.0609696
lowerneck 21.0548 2.75083 -13.7097
upperneck -21.4676 1.9157 9.01217
head -10.594 1.02427 5.25493
rclavicle -3.27746e-014 1.55052e-014
rhumerus 59.181 6.45626 -72.7072
rradius 114.482
rwrist 6.33416
rhand -55.7795 -12.1003
rfingers 7.12502
rthumb -28.1255 -40.0111
lclavicle -3.27746e-014 1.55052e-014
lhumerus 52.2683 18.3226 59.8008
lradius 107.442
lwrist -18.3499
lhand -62.9054 -69.3321
lfingers 7.12502
lthumb -34.9132 -42.7558
rfemur -22.669 -8.04157 12.0486
rtibia 90.028
rfoot 47.0397 -8.34533
rtoes 65.8774
lfemur -25.5352 9.37048 2.4221
ltibia 97.1239
lfoot 20.0837 -8.71075
ltoes 1.8686
1286
root 13.2942 26.15 39.6555 149.268 2.04112 -176.773
lowerback 27.9123 -4.46283 2.73937
upperback 8.16399 -2.91293 0.698827
thorax -6.39339 -0.514627 0.0475005
lowerneck 21.0613 2.71159 -13.5024
upperneck -21.5831 1.89155 8.82485
head -10.6302 1.02383 5.15677
rclavicle 3.38555e-014 -2.62396e-014
rhumerus 58.4644 6.98218 -72.2714
rradius 113.741
rwrist 6.13841
rhand -55.4173 -11.7472
rfingers 7.12502
rthumb -27.7792 -39.7143
lclavicle 3.38555e-014 -2.62396e-014
lhumerus 51.1775 17.6369 59.8073
lradius 107.617
lwrist -17.8812
lhand -62.8249 -68.7324
lfingers 7.12502
lthumb -34.8368 -42.1384
rfemur -22.625 -7.72493 12.3865
rtibia 90.0991
rfoot 47.2374 -8.69656
rtoes 65.8641
lfemur -25.6704 9.65826 2.53439
ltibia 97.396
lfoot 19.567 -10.5255
ltoes -5.30051
1287
root 13.2932 26.1595 39.6568 149.331 2.1924 -176.728
lowerback 27.8863 -4.46732 2.76444
upperback 8.14375 -2.92135 0.712751
thorax -6.40414 -0.523423 0.0512082
lowerneck 20.9553 2.67054 -13.2705
upperneck -21.5856 1.88707 8.65698
head -10.6064 1.02598 5.054
rclavicle -5.23052e-015 -1.98785e-015
rhumerus 57.843 7.51272 -71.8545
rradius 112.996
rwrist 5.72854
rhand -55.2025 -11.3618
rfingers 7.12502
rthumb -27.5739 -39.3619
lclavicle -5.23052e-015 -1.98785e-015
lhumerus 50.2086 17.0068 59.6939
lradius 107.447
lwrist -17.5622
lhand -62.6674 -68.162
lfingers 7.12502
lthumb -34.6873 -41.5335
rfemur -22.6792 -8.02365 12.4632
rtibia 90.1788
rfoot 47.347 -8.45129
rtoes 65.8486
lfemur -25.7985 9.84445 2.69096
ltibia 97.6867
lfoot 19.5893 -11.3784
ltoes -7.13914
1288
root 13.2926 26.1591 39.6567 149.368 2.25648 -176.721
lowerback 27.8947 -4.45243 2.71477
upperback 8.12718 -2.91891 0.73086
thorax -6.4228 -0.524982 0.0994618
lowerneck 20.8299 2.59444 -12.9922
upperneck -21.5476 1.8383 8.45491
head -10.5579 1.00664 4.93594
rclavicle -4.22417e-015 -2.78299e-015
rhumerus 57.3525 7.87633 -71.372
rradius 112.279
rwrist 5.14729
rhand -54.6597 -11.4266
rfingers 7.12502
rthumb -27.0547 -39.5085
lclavicle -4.22417e-015 -2.78299e-015
lhumerus 49.3803 16.3423 59.5931
lradius 107.083
lwrist -17.2028
lhand -62.2797 -66.7253
lfingers 7.12502
lthumb -34.3194 -40.013
rfemur -22.7641 -8.18615 12.5229
rtibia 90.2624
rfoot 47.2993 -8.56893
rtoes 65.859
lfemur -25.669 9.70352 2.94171
ltibia 98.1359
lfoot 19.3927 -10.7424
ltoes -7.51413
1289
root 13.2946 26.1392 39.6533 149.32 2.28517 -176.877
lowerback 27.926 -4.39877 2.39391
upperback 8.18009 -2.92707 0.724129
thorax -6.36118 -0.523454 0.277413
lowerneck 20.5628 2.54807 -12.9086
upperneck -21.3446 1.81957 8.42676
head -10.4304 0.992844 4.90507
rclavicle -1.64494e-014 9.54166e-015
rhumerus 57.0518 8.1732 -70.9747
rradius 111.4
rwrist 4.80893
rhand -53.5137 -11.3616
rfingers 7.12502
rthumb -25.9577 -39.6091
lclavicle -1.64494e-014 9.54166e-015
lhumerus 48.5604 15.7898 59.286
lradius 106.678
lwrist -16.659
lhand -61.6778 -64.5849
lfingers 7.12502
lthumb -33.7476 -37.7455
rfemur -22.856 -8.20386 12.4148
rtibia 90.3967
rfoot 47.2157 -8.90225
rtoes 65.883
lfemur -25.1097 9.4384 3.33123
ltibia 98.8047
lfoot 19.942 -8.38793
ltoes 0.69864
1290
root 13.2972 26.1493 39.656 149.264 2.34035 -177.011
lowerback 27.98 -4.38059 2.07894
upperback 8.24591 -2.97524 0.708698
thorax -6.29683 -0.53936 0.455922
lowerneck 20.2184 2.58297 -12.9956
upperneck -21.0938 1.92423 8.61441
head -10.2904 1.02494 4.96316
rclavicle 4.34841e-014 -4.25399e-014
rhumerus 56.928 8.56047 -70.5248
rradius 110.143
rwrist 5.05857
rhand -53.1003 -11.6672
rfingers 7.12502
rthumb -25.5618 -39.972
lclavicle 4.34841e-014 -4.25399e-014
lhumerus 47.8442 15.2701 58.8553
lradius 106.14
lwrist -16.3042
lhand -61.1004 -61.7359
lfingers 7.12502
lthumb -33.1988 -34.7778
rfemur -22.8084 -8.17826 12.3806
rtibia 90.3795
rfoot 47.2676 -8.92279
rtoes 65.8853
lfemur -25.0782 9.52452 3.18079
ltibia 98.8806
lfoot 19.787 -9.38285
ltoes -4.07004
1291
root 13.297 26.1775 39.6612 149.27 2.37201 -176.951
lowerback 28.0562 -4.42817 2.04601
upperback 8.2527 -3.03557 0.721259
thorax -6.32352 -0.565491 0.510555
lowerneck 19.8691 2.62756 -12.9715
upperneck -20.8005 2.04747 8.69681
head -10.1355 1.06775 4.9597
rclavicle 1.76484e-014 -2.26615e-014
rhumerus 56.8757 8.79914 -70.0803
rradius 108.917
rwrist 4.83683
rhand -52.8824 -12.0734
rfingers 7.12502
rthumb -25.3531 -40.408
lclavicle 1.76484e-014 -2.26615e-014
lhumerus 47.3009 14.6828 58.3949
lradius 105.275
lwrist -16.2315
lhand -60.6199 -58.8048
lfingers 7.12502
lthumb -32.7418 -31.7505
rfemur -22.7189 -8.23331 12.5244
rtibia 90.24
rfoot 47.428 -8.85996
rtoes 65.8808
lfemur -25.3927 9.83197 3.0047
ltibia 98.752
lfoot 19.3709 -11.3665
ltoes -13.326
1292
root 13.2954 26.1498 39.6575 149.228 2.49535 -176.897
lowerback 28.1957 -4.45658 2.00833
upperback 8.26004 -3.0667 0.738782
thorax -6.37906 -0.576222 0.566032
lowerneck 19.6268 2.66282 -12.831
upperneck -20.541 2.12906 8.58789
head -10.0056 1.1023 4.87457
rclavicle -2.16147e-014 -3.57812e-015
rhumerus 56.9381 8.93115 -69.8422
rradius 107.689
rwrist 4.61159
rhand -51.8147 -12.6635
rfingers 7.12502
rthumb -24.3299 -41.1393
lclavicle -2.16147e-014 -3.57812e-015
lhumerus 46.8161 14.1747 57.7224
lradius 104.129
lwrist -16.195
lhand -59.9324 -55.9551
lfingers 7.12502
lthumb -32.0875 -28.7668
rfemur -22.8948 -8.18136 12.6626
rtibia 90.3821
rfoot 47.5179 -9.00673
rtoes 65.8968
lfemur -24.6468 9.44429 3.79213
ltibia 99.5816
lfoot 20.2191 -8.09635
ltoes -2.50903
